<svg xmlns="http://www.w3.org/2000/svg" width="750" height="194" viewBox="0 0 750 194" role="img" aria-label="757M tokens in the last year">
<title>757M tokens in the last year</title>
<style>text { font: 12px -apple-system, BlinkMacSystemFont, 'Segoe UI', 'Noto Sans', Helvetica, Arial, sans-serif; fill: #59636e; } .head { font-size: 16px; fill: #1f2328; } rect.day { stroke: #1f2328; stroke-opacity: 0.05; }</style>
<text class="head" x="0" y="18">757M tokens in the last year</text>
<rect x="0.5" y="30.5" width="749" height="163" rx="6" fill="none" stroke="#d1d9e0"/>
<text x="48" y="58">Sep</text>
<text x="74" y="58">Oct</text>
<text x="126" y="58">Nov</text>
<text x="191" y="58">Dec</text>
<text x="243" y="58">Jan</text>
<text x="295" y="58">Feb</text>
<text x="347" y="58">Mar</text>
<text x="412" y="58">Apr</text>
<text x="464" y="58">May</text>
<text x="529" y="58">Jun</text>
<text x="581" y="58">Jul</text>
<text x="633" y="58">Aug</text>
<text x="698" y="58">Sep</text>
<text x="16" y="88">Mon</text>
<text x="16" y="114">Wed</text>
<text x="16" y="140">Fri</text>
<rect class="day" x="48.5" y="66.5" width="9" height="9" rx="2" fill="#eff2f5"/>
<rect class="day" x="48.5" y="79.5" width="9" height="9" rx="2" fill="#eff2f5"/>
<rect class="day" x="48.5" y="92.5" width="9" height="9" rx="2" fill="#eff2f5"/>
<rect class="day" x="48.5" y="105.5" width="9" height="9" rx="2" fill="#eff2f5"/>
<rect class="day" x="48.5" y="118.5" width="9" height="9" rx="2" fill="#eff2f5"/>
<rect class="day" x="48.5" y="131.5" width="9" height="9" rx="2" fill="#eff2f5"/>
<rect class="day" x="48.5" y="144.5" width="9" height="9" rx="2" fill="#eff2f5"/>
<rect class="day" x="61.5" y="66.5" width="9" height="9" rx="2" fill="#eff2f5"/>
<rect class="day" x="61.5" y="79.5" width="9" height="9" rx="2" fill="#eff2f5"/>
<rect class="day" x="61.5" y="92.5" width="9" height="9" rx="2" fill="#eff2f5"/>
<rect class="day" x="61.5" y="105.5" width="9" height="9" rx="2" fill="#eff2f5"/>
<rect class="day" x="61.5" y="118.5" width="9" height="9" rx="2" fill="#eff2f5"/>
<rect class="day" x="61.5" y="131.5" width="9" height="9" rx="2" fill="#eff2f5"/>
<rect class="day" x="61.5" y="144.5" width="9" height="9" rx="2" fill="#eff2f5"/>
<rect class="day" x="74.5" y="66.5" width="9" height="9" rx="2" fill="#eff2f5"/>
<rect class="day" x="74.5" y="79.5" width="9" height="9" rx="2" fill="#eff2f5"/>
<rect class="day" x="74.5" y="92.5" width="9" height="9" rx="2" fill="#eff2f5"/>
<rect class="day" x="74.5" y="105.5" width="9" height="9" rx="2" fill="#eff2f5"/>
<rect class="day" x="74.5" y="118.5" width="9" height="9" rx="2" fill="#eff2f5"/>
<rect class="day" x="74.5" y="131.5" width="9" height="9" rx="2" fill="#eff2f5"/>
<rect class="day" x="74.5" y="144.5" width="9" height="9" rx="2" fill="#eff2f5"/>
<rect class="day" x="87.5" y="66.5" width="9" height="9" rx="2" fill="#eff2f5"/>
<rect class="day" x="87.5" y="79.5" width="9" height="9" rx="2" fill="#eff2f5"/>
<rect class="day" x="87.5" y="92.5" width="9" height="9" rx="2" fill="#eff2f5"/>
<rect class="day" x="87.5" y="105.5" width="9" height="9" rx="2" fill="#eff2f5"/>
<rect class="day" x="87.5" y="118.5" width="9" height="9" rx="2" fill="#eff2f5"/>
<rect class="day" x="87.5" y="131.5" width="9" height="9" rx="2" fill="#eff2f5"/>
<rect class="day" x="87.5" y="144.5" width="9" height="9" rx="2" fill="#eff2f5"/>
<rect class="day" x="100.5" y="66.5" width="9" height="9" rx="2" fill="#eff2f5"/>
<rect class="day" x="100.5" y="79.5" width="9" height="9" rx="2" fill="#eff2f5"/>
<rect class="day" x="100.5" y="92.5" width="9" height="9" rx="2" fill="#eff2f5"/>
<rect class="day" x="100.5" y="105.5" width="9" height="9" rx="2" fill="#eff2f5"/>
<rect class="day" x="100.5" y="118.5" width="9" height="9" rx="2" fill="#eff2f5"/>
<rect class="day" x="100.5" y="131.5" width="9" height="9" rx="2" fill="#eff2f5"/>
<rect class="day" x="100.5" y="144.5" width="9" height="9" rx="2" fill="#eff2f5"/>
<rect class="day" x="113.5" y="66.5" width="9" height="9" rx="2" fill="#eff2f5"/>
<rect class="day" x="113.5" y="79.5" width="9" height="9" rx="2" fill="#eff2f5"/>
<rect class="day" x="113.5" y="92.5" width="9" height="9" rx="2" fill="#eff2f5"/>
<rect class="day" x="113.5" y="105.5" width="9" height="9" rx="2" fill="#eff2f5"/>
<rect class="day" x="113.5" y="118.5" width="9" height="9" rx="2" fill="#eff2f5"/>
<rect class="day" x="113.5" y="131.5" width="9" height="9" rx="2" fill="#eff2f5"/>
<rect class="day" x="113.5" y="144.5" width="9" height="9" rx="2" fill="#eff2f5"/>
<rect class="day" x="126.5" y="66.5" width="9" height="9" rx="2" fill="#eff2f5"/>
<rect class="day" x="126.5" y="79.5" width="9" height="9" rx="2" fill="#eff2f5"/>
<rect class="day" x="126.5" y="92.5" width="9" height="9" rx="2" fill="#eff2f5"/>
<rect class="day" x="126.5" y="105.5" width="9" height="9" rx="2" fill="#eff2f5"/>
<rect class="day" x="126.5" y="118.5" width="9" height="9" rx="2" fill="#116329"/>
<rect class="day" x="126.5" y="131.5" width="9" height="9" rx="2" fill="#116329"/>
<rect class="day" x="126.5" y="144.5" width="9" height="9" rx="2" fill="#eff2f5"/>
<rect class="day" x="139.5" y="66.5" width="9" height="9" rx="2" fill="#eff2f5"/>
<rect class="day" x="139.5" y="79.5" width="9" height="9" rx="2" fill="#4ac26b"/>
<rect class="day" x="139.5" y="92.5" width="9" height="9" rx="2" fill="#2da44e"/>
<rect class="day" x="139.5" y="105.5" width="9" height="9" rx="2" fill="#eff2f5"/>
<rect class="day" x="139.5" y="118.5" width="9" height="9" rx="2" fill="#eff2f5"/>
<rect class="day" x="139.5" y="131.5" width="9" height="9" rx="2" fill="#aceebb"/>
<rect class="day" x="139.5" y="144.5" width="9" height="9" rx="2" fill="#eff2f5"/>
<rect class="day" x="152.5" y="66.5" width="9" height="9" rx="2" fill="#aceebb"/>
<rect class="day" x="152.5" y="79.5" width="9" height="9" rx="2" fill="#eff2f5"/>
<rect class="day" x="152.5" y="92.5" width="9" height="9" rx="2" fill="#eff2f5"/>
<rect class="day" x="152.5" y="105.5" width="9" height="9" rx="2" fill="#eff2f5"/>
<rect class="day" x="152.5" y="118.5" width="9" height="9" rx="2" fill="#eff2f5"/>
<rect class="day" x="152.5" y="131.5" width="9" height="9" rx="2" fill="#116329"/>
<rect class="day" x="152.5" y="144.5" width="9" height="9" rx="2" fill="#eff2f5"/>
<rect class="day" x="165.5" y="66.5" width="9" height="9" rx="2" fill="#eff2f5"/>
<rect class="day" x="165.5" y="79.5" width="9" height="9" rx="2" fill="#4ac26b"/>
<rect class="day" x="165.5" y="92.5" width="9" height="9" rx="2" fill="#eff2f5"/>
<rect class="day" x="165.5" y="105.5" width="9" height="9" rx="2" fill="#4ac26b"/>
<rect class="day" x="165.5" y="118.5" width="9" height="9" rx="2" fill="#eff2f5"/>
<rect class="day" x="165.5" y="131.5" width="9" height="9" rx="2" fill="#eff2f5"/>
<rect class="day" x="165.5" y="144.5" width="9" height="9" rx="2" fill="#eff2f5"/>
<rect class="day" x="178.5" y="66.5" width="9" height="9" rx="2" fill="#eff2f5"/>
<rect class="day" x="178.5" y="79.5" width="9" height="9" rx="2" fill="#eff2f5"/>
<rect class="day" x="178.5" y="92.5" width="9" height="9" rx="2" fill="#eff2f5"/>
<rect class="day" x="178.5" y="105.5" width="9" height="9" rx="2" fill="#eff2f5"/>
<rect class="day" x="178.5" y="118.5" width="9" height="9" rx="2" fill="#eff2f5"/>
<rect class="day" x="178.5" y="131.5" width="9" height="9" rx="2" fill="#eff2f5"/>
<rect class="day" x="178.5" y="144.5" width="9" height="9" rx="2" fill="#eff2f5"/>
<rect class="day" x="191.5" y="66.5" width="9" height="9" rx="2" fill="#eff2f5"/>
<rect class="day" x="191.5" y="79.5" width="9" height="9" rx="2" fill="#eff2f5"/>
<rect class="day" x="191.5" y="92.5" width="9" height="9" rx="2" fill="#eff2f5"/>
<rect class="day" x="191.5" y="105.5" width="9" height="9" rx="2" fill="#aceebb"/>
<rect class="day" x="191.5" y="118.5" width="9" height="9" rx="2" fill="#eff2f5"/>
<rect class="day" x="191.5" y="131.5" width="9" height="9" rx="2" fill="#2da44e"/>
<rect class="day" x="191.5" y="144.5" width="9" height="9" rx="2" fill="#aceebb"/>
<rect class="day" x="204.5" y="66.5" width="9" height="9" rx="2" fill="#eff2f5"/>
<rect class="day" x="204.5" y="79.5" width="9" height="9" rx="2" fill="#eff2f5"/>
<rect class="day" x="204.5" y="92.5" width="9" height="9" rx="2" fill="#eff2f5"/>
<rect class="day" x="204.5" y="105.5" width="9" height="9" rx="2" fill="#eff2f5"/>
<rect class="day" x="204.5" y="118.5" width="9" height="9" rx="2" fill="#eff2f5"/>
<rect class="day" x="204.5" y="131.5" width="9" height="9" rx="2" fill="#eff2f5"/>
<rect class="day" x="204.5" y="144.5" width="9" height="9" rx="2" fill="#eff2f5"/>
<rect class="day" x="217.5" y="66.5" width="9" height="9" rx="2" fill="#4ac26b"/>
<rect class="day" x="217.5" y="79.5" width="9" height="9" rx="2" fill="#eff2f5"/>
<rect class="day" x="217.5" y="92.5" width="9" height="9" rx="2" fill="#eff2f5"/>
<rect class="day" x="217.5" y="105.5" width="9" height="9" rx="2" fill="#eff2f5"/>
<rect class="day" x="217.5" y="118.5" width="9" height="9" rx="2" fill="#eff2f5"/>
<rect class="day" x="217.5" y="131.5" width="9" height="9" rx="2" fill="#eff2f5"/>
<rect class="day" x="217.5" y="144.5" width="9" height="9" rx="2" fill="#eff2f5"/>
<rect class="day" x="230.5" y="66.5" width="9" height="9" rx="2" fill="#eff2f5"/>
<rect class="day" x="230.5" y="79.5" width="9" height="9" rx="2" fill="#eff2f5"/>
<rect class="day" x="230.5" y="92.5" width="9" height="9" rx="2" fill="#eff2f5"/>
<rect class="day" x="230.5" y="105.5" width="9" height="9" rx="2" fill="#eff2f5"/>
<rect class="day" x="230.5" y="118.5" width="9" height="9" rx="2" fill="#eff2f5"/>
<rect class="day" x="230.5" y="131.5" width="9" height="9" rx="2" fill="#eff2f5"/>
<rect class="day" x="230.5" y="144.5" width="9" height="9" rx="2" fill="#eff2f5"/>
<rect class="day" x="243.5" y="66.5" width="9" height="9" rx="2" fill="#eff2f5"/>
<rect class="day" x="243.5" y="79.5" width="9" height="9" rx="2" fill="#aceebb"/>
<rect class="day" x="243.5" y="92.5" width="9" height="9" rx="2" fill="#aceebb"/>
<rect class="day" x="243.5" y="105.5" width="9" height="9" rx="2" fill="#eff2f5"/>
<rect class="day" x="243.5" y="118.5" width="9" height="9" rx="2" fill="#eff2f5"/>
<rect class="day" x="243.5" y="131.5" width="9" height="9" rx="2" fill="#eff2f5"/>
<rect class="day" x="243.5" y="144.5" width="9" height="9" rx="2" fill="#eff2f5"/>
<rect class="day" x="256.5" y="66.5" width="9" height="9" rx="2" fill="#eff2f5"/>
<rect class="day" x="256.5" y="79.5" width="9" height="9" rx="2" fill="#eff2f5"/>
<rect class="day" x="256.5" y="92.5" width="9" height="9" rx="2" fill="#eff2f5"/>
<rect class="day" x="256.5" y="105.5" width="9" height="9" rx="2" fill="#eff2f5"/>
<rect class="day" x="256.5" y="118.5" width="9" height="9" rx="2" fill="#eff2f5"/>
<rect class="day" x="256.5" y="131.5" width="9" height="9" rx="2" fill="#aceebb"/>
<rect class="day" x="256.5" y="144.5" width="9" height="9" rx="2" fill="#eff2f5"/>
<rect class="day" x="269.5" y="66.5" width="9" height="9" rx="2" fill="#eff2f5"/>
<rect class="day" x="269.5" y="79.5" width="9" height="9" rx="2" fill="#eff2f5"/>
<rect class="day" x="269.5" y="92.5" width="9" height="9" rx="2" fill="#eff2f5"/>
<rect class="day" x="269.5" y="105.5" width="9" height="9" rx="2" fill="#eff2f5"/>
<rect class="day" x="269.5" y="118.5" width="9" height="9" rx="2" fill="#eff2f5"/>
<rect class="day" x="269.5" y="131.5" width="9" height="9" rx="2" fill="#eff2f5"/>
<rect class="day" x="269.5" y="144.5" width="9" height="9" rx="2" fill="#eff2f5"/>
<rect class="day" x="282.5" y="66.5" width="9" height="9" rx="2" fill="#eff2f5"/>
<rect class="day" x="282.5" y="79.5" width="9" height="9" rx="2" fill="#eff2f5"/>
<rect class="day" x="282.5" y="92.5" width="9" height="9" rx="2" fill="#eff2f5"/>
<rect class="day" x="282.5" y="105.5" width="9" height="9" rx="2" fill="#eff2f5"/>
<rect class="day" x="282.5" y="118.5" width="9" height="9" rx="2" fill="#eff2f5"/>
<rect class="day" x="282.5" y="131.5" width="9" height="9" rx="2" fill="#eff2f5"/>
<rect class="day" x="282.5" y="144.5" width="9" height="9" rx="2" fill="#eff2f5"/>
<rect class="day" x="295.5" y="66.5" width="9" height="9" rx="2" fill="#eff2f5"/>
<rect class="day" x="295.5" y="79.5" width="9" height="9" rx="2" fill="#eff2f5"/>
<rect class="day" x="295.5" y="92.5" width="9" height="9" rx="2" fill="#eff2f5"/>
<rect class="day" x="295.5" y="105.5" width="9" height="9" rx="2" fill="#eff2f5"/>
<rect class="day" x="295.5" y="118.5" width="9" height="9" rx="2" fill="#eff2f5"/>
<rect class="day" x="295.5" y="131.5" width="9" height="9" rx="2" fill="#eff2f5"/>
<rect class="day" x="295.5" y="144.5" width="9" height="9" rx="2" fill="#eff2f5"/>
<rect class="day" x="308.5" y="66.5" width="9" height="9" rx="2" fill="#eff2f5"/>
<rect class="day" x="308.5" y="79.5" width="9" height="9" rx="2" fill="#eff2f5"/>
<rect class="day" x="308.5" y="92.5" width="9" height="9" rx="2" fill="#eff2f5"/>
<rect class="day" x="308.5" y="105.5" width="9" height="9" rx="2" fill="#eff2f5"/>
<rect class="day" x="308.5" y="118.5" width="9" height="9" rx="2" fill="#eff2f5"/>
<rect class="day" x="308.5" y="131.5" width="9" height="9" rx="2" fill="#eff2f5"/>
<rect class="day" x="308.5" y="144.5" width="9" height="9" rx="2" fill="#eff2f5"/>
<rect class="day" x="321.5" y="66.5" width="9" height="9" rx="2" fill="#eff2f5"/>
<rect class="day" x="321.5" y="79.5" width="9" height="9" rx="2" fill="#eff2f5"/>
<rect class="day" x="321.5" y="92.5" width="9" height="9" rx="2" fill="#eff2f5"/>
<rect class="day" x="321.5" y="105.5" width="9" height="9" rx="2" fill="#eff2f5"/>
<rect class="day" x="321.5" y="118.5" width="9" height="9" rx="2" fill="#eff2f5"/>
<rect class="day" x="321.5" y="131.5" width="9" height="9" rx="2" fill="#eff2f5"/>
<rect class="day" x="321.5" y="144.5" width="9" height="9" rx="2" fill="#eff2f5"/>
<rect class="day" x="334.5" y="66.5" width="9" height="9" rx="2" fill="#eff2f5"/>
<rect class="day" x="334.5" y="79.5" width="9" height="9" rx="2" fill="#eff2f5"/>
<rect class="day" x="334.5" y="92.5" width="9" height="9" rx="2" fill="#eff2f5"/>
<rect class="day" x="334.5" y="105.5" width="9" height="9" rx="2" fill="#eff2f5"/>
<rect class="day" x="334.5" y="118.5" width="9" height="9" rx="2" fill="#eff2f5"/>
<rect class="day" x="334.5" y="131.5" width="9" height="9" rx="2" fill="#eff2f5"/>
<rect class="day" x="334.5" y="144.5" width="9" height="9" rx="2" fill="#eff2f5"/>
<rect class="day" x="347.5" y="66.5" width="9" height="9" rx="2" fill="#eff2f5"/>
<rect class="day" x="347.5" y="79.5" width="9" height="9" rx="2" fill="#eff2f5"/>
<rect class="day" x="347.5" y="92.5" width="9" height="9" rx="2" fill="#eff2f5"/>
<rect class="day" x="347.5" y="105.5" width="9" height="9" rx="2" fill="#eff2f5"/>
<rect class="day" x="347.5" y="118.5" width="9" height="9" rx="2" fill="#eff2f5"/>
<rect class="day" x="347.5" y="131.5" width="9" height="9" rx="2" fill="#eff2f5"/>
<rect class="day" x="347.5" y="144.5" width="9" height="9" rx="2" fill="#eff2f5"/>
<rect class="day" x="360.5" y="66.5" width="9" height="9" rx="2" fill="#eff2f5"/>
<rect class="day" x="360.5" y="79.5" width="9" height="9" rx="2" fill="#eff2f5"/>
<rect class="day" x="360.5" y="92.5" width="9" height="9" rx="2" fill="#aceebb"/>
<rect class="day" x="360.5" y="105.5" width="9" height="9" rx="2" fill="#eff2f5"/>
<rect class="day" x="360.5" y="118.5" width="9" height="9" rx="2" fill="#eff2f5"/>
<rect class="day" x="360.5" y="131.5" width="9" height="9" rx="2" fill="#eff2f5"/>
<rect class="day" x="360.5" y="144.5" width="9" height="9" rx="2" fill="#eff2f5"/>
<rect class="day" x="373.5" y="66.5" width="9" height="9" rx="2" fill="#eff2f5"/>
<rect class="day" x="373.5" y="79.5" width="9" height="9" rx="2" fill="#eff2f5"/>
<rect class="day" x="373.5" y="92.5" width="9" height="9" rx="2" fill="#eff2f5"/>
<rect class="day" x="373.5" y="105.5" width="9" height="9" rx="2" fill="#eff2f5"/>
<rect class="day" x="373.5" y="118.5" width="9" height="9" rx="2" fill="#eff2f5"/>
<rect class="day" x="373.5" y="131.5" width="9" height="9" rx="2" fill="#eff2f5"/>
<rect class="day" x="373.5" y="144.5" width="9" height="9" rx="2" fill="#eff2f5"/>
<rect class="day" x="386.5" y="66.5" width="9" height="9" rx="2" fill="#eff2f5"/>
<rect class="day" x="386.5" y="79.5" width="9" height="9" rx="2" fill="#eff2f5"/>
<rect class="day" x="386.5" y="92.5" width="9" height="9" rx="2" fill="#eff2f5"/>
<rect class="day" x="386.5" y="105.5" width="9" height="9" rx="2" fill="#eff2f5"/>
<rect class="day" x="386.5" y="118.5" width="9" height="9" rx="2" fill="#eff2f5"/>
<rect class="day" x="386.5" y="131.5" width="9" height="9" rx="2" fill="#eff2f5"/>
<rect class="day" x="386.5" y="144.5" width="9" height="9" rx="2" fill="#eff2f5"/>
<rect class="day" x="399.5" y="66.5" width="9" height="9" rx="2" fill="#eff2f5"/>
<rect class="day" x="399.5" y="79.5" width="9" height="9" rx="2" fill="#eff2f5"/>
<rect class="day" x="399.5" y="92.5" width="9" height="9" rx="2" fill="#eff2f5"/>
<rect class="day" x="399.5" y="105.5" width="9" height="9" rx="2" fill="#eff2f5"/>
<rect class="day" x="399.5" y="118.5" width="9" height="9" rx="2" fill="#eff2f5"/>
<rect class="day" x="399.5" y="131.5" width="9" height="9" rx="2" fill="#eff2f5"/>
<rect class="day" x="399.5" y="144.5" width="9" height="9" rx="2" fill="#eff2f5"/>
<rect class="day" x="412.5" y="66.5" width="9" height="9" rx="2" fill="#eff2f5"/>
<rect class="day" x="412.5" y="79.5" width="9" height="9" rx="2" fill="#eff2f5"/>
<rect class="day" x="412.5" y="92.5" width="9" height="9" rx="2" fill="#eff2f5"/>
<rect class="day" x="412.5" y="105.5" width="9" height="9" rx="2" fill="#eff2f5"/>
<rect class="day" x="412.5" y="118.5" width="9" height="9" rx="2" fill="#eff2f5"/>
<rect class="day" x="412.5" y="131.5" width="9" height="9" rx="2" fill="#eff2f5"/>
<rect class="day" x="412.5" y="144.5" width="9" height="9" rx="2" fill="#eff2f5"/>
<rect class="day" x="425.5" y="66.5" width="9" height="9" rx="2" fill="#eff2f5"/>
<rect class="day" x="425.5" y="79.5" width="9" height="9" rx="2" fill="#eff2f5"/>
<rect class="day" x="425.5" y="92.5" width="9" height="9" rx="2" fill="#eff2f5"/>
<rect class="day" x="425.5" y="105.5" width="9" height="9" rx="2" fill="#eff2f5"/>
<rect class="day" x="425.5" y="118.5" width="9" height="9" rx="2" fill="#eff2f5"/>
<rect class="day" x="425.5" y="131.5" width="9" height="9" rx="2" fill="#eff2f5"/>
<rect class="day" x="425.5" y="144.5" width="9" height="9" rx="2" fill="#eff2f5"/>
<rect class="day" x="438.5" y="66.5" width="9" height="9" rx="2" fill="#eff2f5"/>
<rect class="day" x="438.5" y="79.5" width="9" height="9" rx="2" fill="#eff2f5"/>
<rect class="day" x="438.5" y="92.5" width="9" height="9" rx="2" fill="#eff2f5"/>
<rect class="day" x="438.5" y="105.5" width="9" height="9" rx="2" fill="#eff2f5"/>
<rect class="day" x="438.5" y="118.5" width="9" height="9" rx="2" fill="#eff2f5"/>
<rect class="day" x="438.5" y="131.5" width="9" height="9" rx="2" fill="#eff2f5"/>
<rect class="day" x="438.5" y="144.5" width="9" height="9" rx="2" fill="#eff2f5"/>
<rect class="day" x="451.5" y="66.5" width="9" height="9" rx="2" fill="#eff2f5"/>
<rect class="day" x="451.5" y="79.5" width="9" height="9" rx="2" fill="#eff2f5"/>
<rect class="day" x="451.5" y="92.5" width="9" height="9" rx="2" fill="#eff2f5"/>
<rect class="day" x="451.5" y="105.5" width="9" height="9" rx="2" fill="#eff2f5"/>
<rect class="day" x="451.5" y="118.5" width="9" height="9" rx="2" fill="#eff2f5"/>
<rect class="day" x="451.5" y="131.5" width="9" height="9" rx="2" fill="#eff2f5"/>
<rect class="day" x="451.5" y="144.5" width="9" height="9" rx="2" fill="#eff2f5"/>
<rect class="day" x="464.5" y="66.5" width="9" height="9" rx="2" fill="#eff2f5"/>
<rect class="day" x="464.5" y="79.5" width="9" height="9" rx="2" fill="#eff2f5"/>
<rect class="day" x="464.5" y="92.5" width="9" height="9" rx="2" fill="#eff2f5"/>
<rect class="day" x="464.5" y="105.5" width="9" height="9" rx="2" fill="#eff2f5"/>
<rect class="day" x="464.5" y="118.5" width="9" height="9" rx="2" fill="#eff2f5"/>
<rect class="day" x="464.5" y="131.5" width="9" height="9" rx="2" fill="#eff2f5"/>
<rect class="day" x="464.5" y="144.5" width="9" height="9" rx="2" fill="#eff2f5"/>
<rect class="day" x="477.5" y="66.5" width="9" height="9" rx="2" fill="#eff2f5"/>
<rect class="day" x="477.5" y="79.5" width="9" height="9" rx="2" fill="#eff2f5"/>
<rect class="day" x="477.5" y="92.5" width="9" height="9" rx="2" fill="#eff2f5"/>
<rect class="day" x="477.5" y="105.5" width="9" height="9" rx="2" fill="#eff2f5"/>
<rect class="day" x="477.5" y="118.5" width="9" height="9" rx="2" fill="#eff2f5"/>
<rect class="day" x="477.5" y="131.5" width="9" height="9" rx="2" fill="#eff2f5"/>
<rect class="day" x="477.5" y="144.5" width="9" height="9" rx="2" fill="#eff2f5"/>
<rect class="day" x="490.5" y="66.5" width="9" height="9" rx="2" fill="#eff2f5"/>
<rect class="day" x="490.5" y="79.5" width="9" height="9" rx="2" fill="#eff2f5"/>
<rect class="day" x="490.5" y="92.5" width="9" height="9" rx="2" fill="#eff2f5"/>
<rect class="day" x="490.5" y="105.5" width="9" height="9" rx="2" fill="#eff2f5"/>
<rect class="day" x="490.5" y="118.5" width="9" height="9" rx="2" fill="#4ac26b"/>
<rect class="day" x="490.5" y="131.5" width="9" height="9" rx="2" fill="#eff2f5"/>
<rect class="day" x="490.5" y="144.5" width="9" height="9" rx="2" fill="#116329"/>
<rect class="day" x="503.5" y="66.5" width="9" height="9" rx="2" fill="#eff2f5"/>
<rect class="day" x="503.5" y="79.5" width="9" height="9" rx="2" fill="#eff2f5"/>
<rect class="day" x="503.5" y="92.5" width="9" height="9" rx="2" fill="#aceebb"/>
<rect class="day" x="503.5" y="105.5" width="9" height="9" rx="2" fill="#eff2f5"/>
<rect class="day" x="503.5" y="118.5" width="9" height="9" rx="2" fill="#eff2f5"/>
<rect class="day" x="503.5" y="131.5" width="9" height="9" rx="2" fill="#eff2f5"/>
<rect class="day" x="503.5" y="144.5" width="9" height="9" rx="2" fill="#eff2f5"/>
<rect class="day" x="516.5" y="66.5" width="9" height="9" rx="2" fill="#4ac26b"/>
<rect class="day" x="516.5" y="79.5" width="9" height="9" rx="2" fill="#eff2f5"/>
<rect class="day" x="516.5" y="92.5" width="9" height="9" rx="2" fill="#eff2f5"/>
<rect class="day" x="516.5" y="105.5" width="9" height="9" rx="2" fill="#aceebb"/>
<rect class="day" x="516.5" y="118.5" width="9" height="9" rx="2" fill="#aceebb"/>
<rect class="day" x="516.5" y="131.5" width="9" height="9" rx="2" fill="#eff2f5"/>
<rect class="day" x="516.5" y="144.5" width="9" height="9" rx="2" fill="#eff2f5"/>
<rect class="day" x="529.5" y="66.5" width="9" height="9" rx="2" fill="#eff2f5"/>
<rect class="day" x="529.5" y="79.5" width="9" height="9" rx="2" fill="#eff2f5"/>
<rect class="day" x="529.5" y="92.5" width="9" height="9" rx="2" fill="#4ac26b"/>
<rect class="day" x="529.5" y="105.5" width="9" height="9" rx="2" fill="#eff2f5"/>
<rect class="day" x="529.5" y="118.5" width="9" height="9" rx="2" fill="#eff2f5"/>
<rect class="day" x="529.5" y="131.5" width="9" height="9" rx="2" fill="#eff2f5"/>
<rect class="day" x="529.5" y="144.5" width="9" height="9" rx="2" fill="#eff2f5"/>
<rect class="day" x="542.5" y="66.5" width="9" height="9" rx="2" fill="#eff2f5"/>
<rect class="day" x="542.5" y="79.5" width="9" height="9" rx="2" fill="#2da44e"/>
<rect class="day" x="542.5" y="92.5" width="9" height="9" rx="2" fill="#4ac26b"/>
<rect class="day" x="542.5" y="105.5" width="9" height="9" rx="2" fill="#eff2f5"/>
<rect class="day" x="542.5" y="118.5" width="9" height="9" rx="2" fill="#2da44e"/>
<rect class="day" x="542.5" y="131.5" width="9" height="9" rx="2" fill="#eff2f5"/>
<rect class="day" x="542.5" y="144.5" width="9" height="9" rx="2" fill="#eff2f5"/>
<rect class="day" x="555.5" y="66.5" width="9" height="9" rx="2" fill="#eff2f5"/>
<rect class="day" x="555.5" y="79.5" width="9" height="9" rx="2" fill="#eff2f5"/>
<rect class="day" x="555.5" y="92.5" width="9" height="9" rx="2" fill="#eff2f5"/>
<rect class="day" x="555.5" y="105.5" width="9" height="9" rx="2" fill="#eff2f5"/>
<rect class="day" x="555.5" y="118.5" width="9" height="9" rx="2" fill="#eff2f5"/>
<rect class="day" x="555.5" y="131.5" width="9" height="9" rx="2" fill="#eff2f5"/>
<rect class="day" x="555.5" y="144.5" width="9" height="9" rx="2" fill="#eff2f5"/>
<rect class="day" x="568.5" y="66.5" width="9" height="9" rx="2" fill="#eff2f5"/>
<rect class="day" x="568.5" y="79.5" width="9" height="9" rx="2" fill="#eff2f5"/>
<rect class="day" x="568.5" y="92.5" width="9" height="9" rx="2" fill="#eff2f5"/>
<rect class="day" x="568.5" y="105.5" width="9" height="9" rx="2" fill="#eff2f5"/>
<rect class="day" x="568.5" y="118.5" width="9" height="9" rx="2" fill="#eff2f5"/>
<rect class="day" x="568.5" y="131.5" width="9" height="9" rx="2" fill="#eff2f5"/>
<rect class="day" x="568.5" y="144.5" width="9" height="9" rx="2" fill="#eff2f5"/>
<rect class="day" x="581.5" y="66.5" width="9" height="9" rx="2" fill="#eff2f5"/>
<rect class="day" x="581.5" y="79.5" width="9" height="9" rx="2" fill="#eff2f5"/>
<rect class="day" x="581.5" y="92.5" width="9" height="9" rx="2" fill="#eff2f5"/>
<rect class="day" x="581.5" y="105.5" width="9" height="9" rx="2" fill="#eff2f5"/>
<rect class="day" x="581.5" y="118.5" width="9" height="9" rx="2" fill="#eff2f5"/>
<rect class="day" x="581.5" y="131.5" width="9" height="9" rx="2" fill="#eff2f5"/>
<rect class="day" x="581.5" y="144.5" width="9" height="9" rx="2" fill="#eff2f5"/>
<rect class="day" x="594.5" y="66.5" width="9" height="9" rx="2" fill="#eff2f5"/>
<rect class="day" x="594.5" y="79.5" width="9" height="9" rx="2" fill="#eff2f5"/>
<rect class="day" x="594.5" y="92.5" width="9" height="9" rx="2" fill="#eff2f5"/>
<rect class="day" x="594.5" y="105.5" width="9" height="9" rx="2" fill="#eff2f5"/>
<rect class="day" x="594.5" y="118.5" width="9" height="9" rx="2" fill="#eff2f5"/>
<rect class="day" x="594.5" y="131.5" width="9" height="9" rx="2" fill="#eff2f5"/>
<rect class="day" x="594.5" y="144.5" width="9" height="9" rx="2" fill="#eff2f5"/>
<rect class="day" x="607.5" y="66.5" width="9" height="9" rx="2" fill="#eff2f5"/>
<rect class="day" x="607.5" y="79.5" width="9" height="9" rx="2" fill="#eff2f5"/>
<rect class="day" x="607.5" y="92.5" width="9" height="9" rx="2" fill="#eff2f5"/>
<rect class="day" x="607.5" y="105.5" width="9" height="9" rx="2" fill="#aceebb"/>
<rect class="day" x="607.5" y="118.5" width="9" height="9" rx="2" fill="#eff2f5"/>
<rect class="day" x="607.5" y="131.5" width="9" height="9" rx="2" fill="#eff2f5"/>
<rect class="day" x="607.5" y="144.5" width="9" height="9" rx="2" fill="#eff2f5"/>
<rect class="day" x="620.5" y="66.5" width="9" height="9" rx="2" fill="#eff2f5"/>
<rect class="day" x="620.5" y="79.5" width="9" height="9" rx="2" fill="#eff2f5"/>
<rect class="day" x="620.5" y="92.5" width="9" height="9" rx="2" fill="#eff2f5"/>
<rect class="day" x="620.5" y="105.5" width="9" height="9" rx="2" fill="#eff2f5"/>
<rect class="day" x="620.5" y="118.5" width="9" height="9" rx="2" fill="#2da44e"/>
<rect class="day" x="620.5" y="131.5" width="9" height="9" rx="2" fill="#eff2f5"/>
<rect class="day" x="620.5" y="144.5" width="9" height="9" rx="2" fill="#eff2f5"/>
<rect class="day" x="633.5" y="66.5" width="9" height="9" rx="2" fill="#eff2f5"/>
<rect class="day" x="633.5" y="79.5" width="9" height="9" rx="2" fill="#eff2f5"/>
<rect class="day" x="633.5" y="92.5" width="9" height="9" rx="2" fill="#eff2f5"/>
<rect class="day" x="633.5" y="105.5" width="9" height="9" rx="2" fill="#4ac26b"/>
<rect class="day" x="633.5" y="118.5" width="9" height="9" rx="2" fill="#116329"/>
<rect class="day" x="633.5" y="131.5" width="9" height="9" rx="2" fill="#eff2f5"/>
<rect class="day" x="633.5" y="144.5" width="9" height="9" rx="2" fill="#eff2f5"/>
<rect class="day" x="646.5" y="66.5" width="9" height="9" rx="2" fill="#eff2f5"/>
<rect class="day" x="646.5" y="79.5" width="9" height="9" rx="2" fill="#eff2f5"/>
<rect class="day" x="646.5" y="92.5" width="9" height="9" rx="2" fill="#eff2f5"/>
<rect class="day" x="646.5" y="105.5" width="9" height="9" rx="2" fill="#aceebb"/>
<rect class="day" x="646.5" y="118.5" width="9" height="9" rx="2" fill="#eff2f5"/>
<rect class="day" x="646.5" y="131.5" width="9" height="9" rx="2" fill="#eff2f5"/>
<rect class="day" x="646.5" y="144.5" width="9" height="9" rx="2" fill="#eff2f5"/>
<rect class="day" x="659.5" y="66.5" width="9" height="9" rx="2" fill="#eff2f5"/>
<rect class="day" x="659.5" y="79.5" width="9" height="9" rx="2" fill="#eff2f5"/>
<rect class="day" x="659.5" y="92.5" width="9" height="9" rx="2" fill="#eff2f5"/>
<rect class="day" x="659.5" y="105.5" width="9" height="9" rx="2" fill="#eff2f5"/>
<rect class="day" x="659.5" y="118.5" width="9" height="9" rx="2" fill="#2da44e"/>
<rect class="day" x="659.5" y="131.5" width="9" height="9" rx="2" fill="#116329"/>
<rect class="day" x="659.5" y="144.5" width="9" height="9" rx="2" fill="#2da44e"/>
<rect class="day" x="672.5" y="66.5" width="9" height="9" rx="2" fill="#116329"/>
<rect class="day" x="672.5" y="79.5" width="9" height="9" rx="2" fill="#2da44e"/>
<rect class="day" x="672.5" y="92.5" width="9" height="9" rx="2" fill="#4ac26b"/>
<rect class="day" x="672.5" y="105.5" width="9" height="9" rx="2" fill="#2da44e"/>
<rect class="day" x="672.5" y="118.5" width="9" height="9" rx="2" fill="#116329"/>
<rect class="day" x="672.5" y="131.5" width="9" height="9" rx="2" fill="#eff2f5"/>
<rect class="day" x="672.5" y="144.5" width="9" height="9" rx="2" fill="#4ac26b"/>
<rect class="day" x="685.5" y="66.5" width="9" height="9" rx="2" fill="#eff2f5"/>
<rect class="day" x="685.5" y="79.5" width="9" height="9" rx="2" fill="#eff2f5"/>
<rect class="day" x="685.5" y="92.5" width="9" height="9" rx="2" fill="#eff2f5"/>
<rect class="day" x="685.5" y="105.5" width="9" height="9" rx="2" fill="#116329"/>
<rect class="day" x="685.5" y="118.5" width="9" height="9" rx="2" fill="#aceebb"/>
<rect class="day" x="685.5" y="131.5" width="9" height="9" rx="2" fill="#eff2f5"/>
<rect class="day" x="685.5" y="144.5" width="9" height="9" rx="2" fill="#116329"/>
<rect class="day" x="698.5" y="66.5" width="9" height="9" rx="2" fill="#eff2f5"/>
<rect class="day" x="698.5" y="79.5" width="9" height="9" rx="2" fill="#eff2f5"/>
<rect class="day" x="698.5" y="92.5" width="9" height="9" rx="2" fill="#2da44e"/>
<rect class="day" x="698.5" y="105.5" width="9" height="9" rx="2" fill="#eff2f5"/>
<rect class="day" x="698.5" y="118.5" width="9" height="9" rx="2" fill="#2da44e"/>
<rect class="day" x="698.5" y="131.5" width="9" height="9" rx="2" fill="#eff2f5"/>
<rect class="day" x="698.5" y="144.5" width="9" height="9" rx="2" fill="#2da44e"/>
<rect class="day" x="711.5" y="66.5" width="9" height="9" rx="2" fill="#aceebb"/>
<rect class="day" x="711.5" y="79.5" width="9" height="9" rx="2" fill="#eff2f5"/>
<rect class="day" x="711.5" y="92.5" width="9" height="9" rx="2" fill="#116329"/>
<rect class="day" x="711.5" y="105.5" width="9" height="9" rx="2" fill="#4ac26b"/>
<rect class="day" x="711.5" y="118.5" width="9" height="9" rx="2" fill="#2da44e"/>
<rect class="day" x="711.5" y="131.5" width="9" height="9" rx="2" fill="#4ac26b"/>
<rect class="day" x="711.5" y="144.5" width="9" height="9" rx="2" fill="#116329"/>
<rect class="day" x="724.5" y="66.5" width="9" height="9" rx="2" fill="#2da44e"/>
<rect class="day" x="724.5" y="79.5" width="9" height="9" rx="2" fill="#4ac26b"/>
<rect class="day" x="724.5" y="92.5" width="9" height="9" rx="2" fill="#116329"/>
<rect class="day" x="724.5" y="105.5" width="9" height="9" rx="2" fill="#116329"/>
<text x="16" y="178">Claude Code · Codex · Gemini CLI · updated Sep 23, 2026</text>
<text x="630" y="178" text-anchor="end">Less</text>
<rect class="day" x="636.5" y="168.5" width="9" height="9" rx="2" fill="#eff2f5"/>
<rect class="day" x="649.5" y="168.5" width="9" height="9" rx="2" fill="#aceebb"/>
<rect class="day" x="662.5" y="168.5" width="9" height="9" rx="2" fill="#4ac26b"/>
<rect class="day" x="675.5" y="168.5" width="9" height="9" rx="2" fill="#2da44e"/>
<rect class="day" x="688.5" y="168.5" width="9" height="9" rx="2" fill="#116329"/>
<text x="734" y="178" text-anchor="end">More</text>
</svg>
